<svg width="24" height="24" viewBox="0 0 24 24" fill="none" xmlns="http://www.w3.org/2000/svg">
    <path d="M11.9109 1.63418C11.598 0.788606 10.402 0.788606 10.0891 1.63418L9.58105 3.00723C9.48268 3.27308 9.27308 3.48268 9.00723 3.58105L7.63418 4.08912C6.78861 4.40202 6.78861 5.59798 7.63418 5.91088L9.00723 6.41895C9.27308 6.51732 9.48268 6.72693 9.58105 6.99277L10.0891 8.36582C10.402 9.21139 11.598 9.21139 11.9109 8.36582L12.4189 6.99277C12.5173 6.72693 12.7269 6.51732 12.9928 6.41895L14.3658 5.91088C15.2114 5.59798 15.2114 4.40202 14.3658 4.08912L12.9928 3.58105C12.7269 3.48268 12.5173 3.27307 12.4189 3.00723L11.9109 1.63418Z" fill="#9B47C7"/>
    <path fill-rule="evenodd" clip-rule="evenodd" d="M21.5563 6.00003L22.9705 7.41425C23.7516 8.19529 23.7516 9.46162 22.9705 10.2427L10.2426 22.9706C9.46158 23.7516 8.19525 23.7516 7.4142 22.9706L5.99999 21.5564C5.21894 20.7753 5.21894 19.509 5.99999 18.728L18.7279 6.00003C19.509 5.21898 20.7753 5.21898 21.5563 6.00003ZM21.5563 8.82846L20.1421 7.41425L16.6066 10.9498L18.0208 12.364L21.5563 8.82846Z" fill="#9B47C7"/>
    <path d="M4.31684 9.47564C4.55151 8.84145 5.44849 8.84145 5.68316 9.47564L6.06421 10.5054C6.13799 10.7048 6.29519 10.862 6.49458 10.9358L7.52436 11.3168C8.15855 11.5515 8.15855 12.4485 7.52436 12.6832L6.49458 13.0642C6.29519 13.138 6.13799 13.2952 6.06421 13.4946L5.68316 14.5244C5.44849 15.1585 4.55151 15.1585 4.31684 14.5244L3.93579 13.4946C3.86201 13.2952 3.70481 13.138 3.50542 13.0642L2.47564 12.6832C1.84145 12.4485 1.84145 11.5515 2.47564 11.3168L3.50542 10.9358C3.70481 10.862 3.86201 10.7048 3.93579 10.5054L4.31684 9.47564Z" fill="#9B47C7"/>
</svg>
    